<svg width="153" height="44" viewBox="0 0 153 44" fill="none" xmlns="http://www.w3.org/2000/svg">
<path d="M10.2571 21.3672C7.22455 21.3672 5.30222 22.8301 4.18809 24.1423V21.7729H0V43.5457H4.18809V30.6082C4.18809 27.1674 6.79192 25.311 9.24178 25.311C12.8615 25.311 13.402 28.4011 13.402 30.243V43.5457H17.5899V29.2679C17.5899 24.3945 14.7801 21.3672 10.2571 21.3672Z" fill="#171D38"/>
<path d="M30.6528 21.375C24.8274 21.375 20.5991 26.1328 20.5991 32.6879C20.5991 39.3485 24.8002 44.0004 30.8154 44.0004C34.9457 44.0004 38.2465 41.8067 39.6448 38.1322L39.6749 38.0531L36.1391 36.2119L36.0806 36.4389C35.4565 38.8567 33.4883 40.2999 30.8153 40.2999C27.3405 40.2999 24.925 37.6437 24.6401 33.5226H39.9756V32.0378C39.9756 25.5603 36.3161 21.375 30.6528 21.375H30.6528ZM24.8848 30.1877C25.5724 26.9583 27.7065 25.0346 30.6122 25.0346C34.1561 25.0346 35.5785 27.6775 35.7351 30.1877H24.8848Z" fill="#171D38"/>
<path d="M65.9641 21.7729L61.4091 36.8183L57.3267 21.7729H53.835L49.5397 36.9413L44.9272 21.7729H40.7114L47.5609 43.5458H51.1671L55.5365 28.5071L59.6168 43.5458H63.2245L70.0738 21.7729H65.9641Z" fill="#171D38"/>
<path d="M80.4618 30.6413L79.7437 30.4775C76.979 29.872 75.3103 29.5064 75.3103 27.7737C75.3103 26.0359 76.8 24.9128 79.1051 24.9128C81.3757 24.9128 83.1705 25.8635 84.2954 27.6619L84.3407 27.7347L87.7785 26.0466L87.7094 25.9077C86.3323 23.1541 83.0185 21.375 79.2675 21.375C74.5951 21.375 71.2037 24.1854 71.2037 28.0579C71.2037 32.5816 74.9002 33.3982 78.4755 34.1884L78.9826 34.295C82.137 34.9518 83.8745 35.3133 83.8745 37.3171C83.8745 38.0787 83.6115 38.724 83.0929 39.2356C82.3361 39.9819 81.0255 40.4225 79.5718 40.4225C79.5387 40.4225 79.5053 40.4221 79.4722 40.4218C76.4192 40.3794 74.2333 38.6738 73.421 37.0025L73.3791 36.9167L69.7876 38.6876L69.8911 38.8975C71.4456 42.0452 75.1164 44.0004 79.4707 44.0004C84.402 44.0004 87.981 41.0529 87.981 36.9921C87.981 32.3706 83.9863 31.4519 80.4619 30.6413L80.4618 30.6413Z" fill="#171D38"/>
<path d="M99.882 21.375C94.0565 21.375 89.8281 26.1328 89.8281 32.6879C89.8281 39.3485 94.0294 44.0004 100.045 44.0004C104.175 44.0004 107.475 41.8067 108.874 38.1322L108.904 38.0531L105.368 36.2119L105.31 36.4389C104.685 38.8567 102.717 40.2999 100.045 40.2999C96.5697 40.2999 94.1542 37.6437 93.8693 33.5226H109.205V32.0378C109.205 25.5603 105.546 21.375 99.882 21.375ZM94.1137 30.1877C94.8018 26.9583 96.9357 25.0346 99.8415 25.0346C103.385 25.0346 104.808 27.6775 104.964 30.1877H94.1137H94.1137Z" fill="#171D38"/>
<path d="M126.882 35.969L126.855 36.0793C126.191 38.7749 124.42 40.2594 121.867 40.2594C118.156 40.2594 115.757 37.2874 115.757 32.6879C115.757 28.0635 118.156 25.0755 121.867 25.0755C124.372 25.0755 126.191 26.6009 126.856 29.2608L126.883 29.3704L130.59 27.728L130.567 27.6481C129.449 23.7786 126.116 21.375 121.867 21.375C115.804 21.375 111.57 26.0269 111.57 32.6879C111.57 39.3489 115.804 44.0004 121.867 44.0004C126.093 44.0004 129.444 41.5913 130.613 37.7135L130.637 37.6333L126.882 35.969Z" fill="#171D38"/>
<path d="M117.771 0L104.411 9.89675H142.513V30.6799L152.41 17.3193V0H117.771Z" fill="#FF5C00"/>
</svg>
